<?xml version="1.0" encoding="UTF-8"?>
<svg id="Layer_2" xmlns="http://www.w3.org/2000/svg" viewBox="0 0 413.73 184.81">
  <defs>
    <style>
      .cls-1 {
        fill: #fff;
      }
    </style>
  </defs>
  <g id="Layer_1-2" data-name="Layer_1">
    <g>
      <path d="M178.76,71.27c-.23,2.28-.57,4.81-1.03,7.58-.46,2.77-1.16,5.58-2.11,8.43-.95,2.85-2.22,5.6-3.82,8.26-1.6,2.66-3.65,5.03-6.15,7.12-2.51,2.09-5.53,3.76-9.06,5.01s-7.73,1.88-12.59,1.88-9.16-.7-12.65-2.11c-3.49-1.4-6.34-3.34-8.55-5.81-2.2-2.47-3.8-5.34-4.79-8.6-.99-3.27-1.48-6.76-1.48-10.48,0-1.67.07-3.93.23-6.78.15-2.85.36-5.94.63-9.29.27-3.34.55-6.82.85-10.43.3-3.61.59-7.05.85-10.31.27-3.27.51-6.21.74-8.83.23-2.62.38-4.62.46-5.98.07-1.44.27-2.37.57-2.79.3-.42.76-.63,1.37-.63h6.27c4.63,0,7.75.99,9.34,2.96,1.6,1.98,2.39,4.9,2.39,8.77,0,.23-.06,1.24-.17,3.02-.11,1.79-.27,3.97-.46,6.55-.19,2.58-.38,5.39-.57,8.43-.19,3.04-.38,5.93-.57,8.66-.19,2.73-.34,5.13-.46,7.18-.11,2.05-.17,3.42-.17,4.1,0,1.29.06,2.77.17,4.44.11,1.67.42,3.27.91,4.79.49,1.52,1.29,2.79,2.39,3.82,1.1,1.03,2.68,1.54,4.73,1.54,2.58,0,4.69-.87,6.32-2.62,1.63-1.75,2.89-3.84,3.76-6.27.87-2.43,1.48-4.9,1.82-7.41.34-2.51.59-4.56.74-6.15.3-3.87.63-7.86.97-11.97.34-4.1.64-7.94.91-11.51.27-3.57.47-6.68.63-9.34.15-2.66.23-4.48.23-5.47,0-1.52.11-2.49.34-2.91.23-.42.72-.63,1.48-.63h6.27c2.58,0,4.62.23,6.1.68s2.6,1.06,3.36,1.82c.76.76,1.23,1.63,1.42,2.62.19.99.29,2.01.29,3.08,0,.99-.06,2.85-.17,5.58-.11,2.73-.25,5.85-.4,9.34-.15,3.5-.34,7.1-.57,10.83-.23,3.72-.49,6.99-.8,9.8Z"/>
      <path d="M214.66,27.51c1.9,0,3.48.36,4.73,1.08,1.25.72,2.3,1.67,3.13,2.85.84,1.18,1.52,2.53,2.05,4.05.53,1.52.99,3.08,1.37,4.67,3.04,12.31,5.54,22.45,7.52,30.43,1.97,7.98,3.53,14.41,4.67,19.31,1.14,4.9,1.94,8.53,2.39,10.88.46,2.36.68,3.99.68,4.9,0,1.06-.25,1.79-.74,2.17-.5.38-1.27.57-2.34.57h-5.81c-3.27,0-5.87-.4-7.81-1.2s-3.42-1.96-4.44-3.48c-1.03-1.52-1.77-3.36-2.22-5.53-.46-2.17-.84-4.62-1.14-7.35h-19.83l-3.76,15.73c-.38,1.22-1.25,1.82-2.62,1.82h-6.04c-1.22,0-2.47-.13-3.76-.4-1.29-.27-2.45-.7-3.48-1.31-1.03-.61-1.88-1.38-2.56-2.34-.68-.95-1.03-2.11-1.03-3.48,0-1.67.53-4.4,1.6-8.2,1.06-3.8,2.41-8.11,4.05-12.93,1.63-4.82,3.46-9.87,5.47-15.16,2.01-5.28,3.97-10.27,5.87-14.98,1.9-4.71,3.63-8.85,5.18-12.42,1.56-3.57,2.75-6.08,3.59-7.52.61-1.06,1.16-1.69,1.65-1.88.49-.19,1.42-.29,2.79-.29h10.83ZM200.99,74.34h13.11l-4.79-30.08-8.32,30.08Z"/>
      <path d="M269.7,43.46l-4.33,63.24c-.08,1.14-.5,1.71-1.25,1.71h-6.27c-4.26,0-7.29-.84-9.12-2.51-1.82-1.67-2.73-4.06-2.73-7.18,0-1.14.06-2.85.17-5.13.11-2.28.29-4.96.51-8.03.23-3.08.47-6.42.74-10.03.27-3.61.55-7.25.85-10.94.3-3.68.59-7.35.85-11,.27-3.65.51-7.03.74-10.14h-18.23c-.84,0-1.25-.53-1.25-1.6l.34-6.38c.07-.99.25-1.96.51-2.91.27-.95.7-1.8,1.31-2.56.61-.76,1.39-1.37,2.34-1.82.95-.46,2.11-.68,3.48-.68h50.94c.46,0,.87.11,1.25.34.38.23.57.65.57,1.25l-.46,6.72c-.15,2.28-.78,4.12-1.88,5.53-1.1,1.41-3.36,2.11-6.78,2.11h-12.31Z"/>
      <path d="M295.22,108.41c-4.33,0-7.39-.85-9.17-2.56-1.79-1.71-2.68-4.23-2.68-7.58,0-.91.06-2.45.17-4.62.11-2.16.29-4.73.51-7.69s.47-6.21.74-9.74c.27-3.53.55-7.12.85-10.77.61-7.67,1.04-13.9,1.31-18.69.27-4.79.47-8.55.63-11.28.23-3.42.46-5.6.68-6.55.23-.95.72-1.42,1.48-1.42,2.35,0,4.77-.06,7.24-.17,2.47-.11,4.84-.25,7.12-.4,2.28-.15,4.43-.29,6.44-.4,2.01-.11,3.82-.17,5.41-.17,4.86,0,9.04.61,12.53,1.82,3.49,1.22,6.32,2.93,8.49,5.13,2.17,2.2,3.76,4.86,4.79,7.98,1.03,3.12,1.54,6.61,1.54,10.48,0,5.93-1.18,11.21-3.53,15.84-2.36,4.63-6.12,8.17-11.28,10.6l9.57,13.67c1.75,2.58,3.08,4.58,3.99,5.98.91,1.41,1.37,2.45,1.37,3.13,0,.53-.32,1.27-.97,2.22-.65.95-1.6,1.9-2.85,2.85-1.25.95-2.77,1.77-4.56,2.45-1.79.68-3.78,1.03-5.98,1.03-2.43,0-4.54-.8-6.32-2.39-1.79-1.6-3.38-3.7-4.79-6.32-1.41-2.62-2.62-5.64-3.65-9.06-1.03-3.42-1.99-6.99-2.91-10.71-2.73-.15-4.98-.42-6.72-.8-.23,3.34-.46,6.53-.68,9.57-.23,3.04-.42,5.75-.57,8.15-.15,2.39-.3,4.37-.46,5.93-.15,1.56-.23,2.49-.23,2.79-.08.61-.23,1.05-.46,1.31-.23.27-.68.4-1.37.4h-5.7ZM313.68,43.46c-.91,0-1.94.06-3.08.17-1.14.11-2.36.25-3.65.4-.15,2.66-.32,5.83-.51,9.52-.19,3.69-.44,7.62-.74,11.79,2.66.61,4.97.91,6.95.91,2.35,0,4.27-.46,5.75-1.37,1.48-.91,2.64-2.03,3.48-3.36.84-1.33,1.39-2.75,1.65-4.27.27-1.52.4-2.89.4-4.1,0-3.11-.76-5.51-2.28-7.18-1.52-1.67-4.18-2.51-7.98-2.51Z"/>
      <path d="M382.62,26.25c5.54,0,10.29.78,14.24,2.34,3.95,1.56,7.18,3.84,9.69,6.84,2.51,3,4.33,6.65,5.47,10.94,1.14,4.29,1.71,9.17,1.71,14.64,0,3.04-.21,6.34-.63,9.91-.42,3.57-1.18,7.16-2.28,10.77-1.1,3.61-2.6,7.08-4.5,10.43-1.9,3.34-4.35,6.31-7.35,8.89-3,2.58-6.59,4.65-10.77,6.21-4.18,1.56-9.12,2.34-14.81,2.34-6.31,0-11.53-.95-15.67-2.85-4.14-1.9-7.45-4.46-9.91-7.69-2.47-3.23-4.22-7.05-5.24-11.45-1.03-4.41-1.54-9.12-1.54-14.13,0-5.93.68-11.72,2.05-17.38,1.37-5.66,3.66-10.69,6.89-15.1,3.23-4.4,7.5-7.96,12.82-10.65,5.32-2.7,11.93-4.05,19.83-4.05ZM380.23,43.92c-2.66,0-4.96.48-6.89,1.42-1.94.95-3.57,2.22-4.9,3.82-1.33,1.6-2.39,3.38-3.19,5.36-.8,1.98-1.43,4.01-1.88,6.1-.46,2.09-.76,4.1-.91,6.04-.15,1.94-.23,3.67-.23,5.19,0,6.91,1.16,11.97,3.48,15.16,2.32,3.19,5.6,4.79,9.86,4.79,3.49,0,6.34-1.12,8.55-3.36,2.2-2.24,3.93-4.94,5.18-8.09,1.25-3.15,2.11-6.42,2.56-9.8.46-3.38.68-6.25.68-8.6,0-5.54-.95-9.93-2.85-13.16-1.9-3.23-5.05-4.84-9.46-4.84Z"/>
      <g>
        <path d="M91.54,171.03c0,.97-.54,2.2-1.63,3.72-1.09,1.51-2.63,3.02-4.62,4.53-1.99,1.51-4.35,2.81-7.07,3.9-2.72,1.09-5.71,1.63-8.97,1.63-3.99,0-7.43-.88-10.33-2.63-2.9-1.75-5.47-4.14-7.7-7.16-2.24-3.02-4.2-6.62-5.89-10.79-1.69-4.17-3.33-8.61-4.89-13.32-7.74-.85-14.2-2.9-19.4-6.16-5.2-3.26-9.34-7.43-12.42-12.51-3.08-5.08-5.29-10.85-6.62-17.31-1.33-6.46-1.99-13.38-1.99-20.76,0-9.43,1.06-18.64,3.17-27.64,2.11-9,5.62-17.04,10.51-24.11,4.89-7.07,11.33-12.75,19.31-17.04,7.98-4.29,17.82-6.43,29.55-6.43,8.58,0,15.89,1.24,21.93,3.72,6.04,2.48,10.97,6.04,14.77,10.7,3.81,4.65,6.59,10.39,8.34,17.22,1.75,6.83,2.63,14.59,2.63,23.29,0,6.29-.54,13.2-1.63,20.76-1.09,7.55-3.14,14.86-6.16,21.93-3.02,7.07-7.16,13.48-12.42,19.22-5.26,5.74-12.12,10-20.57,12.78,1.81,1.81,3.99,3.87,6.53,6.16,2.54,2.29,4.95,4.5,7.25,6.62,2.29,2.11,4.26,4.05,5.89,5.8,1.63,1.75,2.45,3.05,2.45,3.9ZM58.73,47.04c-5.44,0-9.79,1.63-13.05,4.89-3.26,3.26-5.77,7.25-7.52,11.96-1.75,4.71-2.93,9.64-3.54,14.77-.61,5.14-.91,9.58-.91,13.32,0,10.51,1.6,18.34,4.8,23.47,3.2,5.14,7.7,7.7,13.5,7.7,5.08,0,9.21-1.78,12.42-5.35,3.2-3.56,5.71-7.85,7.52-12.87,1.81-5.01,3.02-10.27,3.62-15.77.6-5.5.91-10.24.91-14.23,0-8.7-1.33-15.53-3.99-20.48-2.66-4.95-7.25-7.43-13.78-7.43Z"/>
        <path class="cls-1" d="M50.52,123.09s10.39,1.41,16.24-8.12c0,0,3.63-5.22,4.79-8.86,0,0,2.57-6.38,3.38-12.3l.43-2.52s.75-6.76.9-9.19c0,0,.27-3.18.26-6.03v-2.34s-.07-2.36-.07-2.36c0,0-.15-4.29-.75-7.18,0,0-.86-4.4-1.64-6.33,0,0-1.05-3.46-3.32-6.06,0,0-2.21-2.81-5.95-3.91,0,0-4.48-1.58-10.09-.53,0,0-3.51.37-7.1,2.94,0,0-2.25,1.49-4.67,4.85,0,0-2.47,3.19-4.1,7.15,0,0-1.58,3.75-2.56,7.7,0,0-.99,3.81-1.48,7.62,0,0-1.71,11.64-.85,20.2,0,0,.31,13.26,6.07,19.67,0,0,3.76,5.18,10.52,5.6Z"/>
        <path d="M60.77,116.99c-7.64-1.19-13.02-9.45-12.02-18.45,1-9,7.99-15.33,15.63-14.14s13.02,9.45,12.02,18.45c-1,9-7.99,15.33-15.63,14.14Z"/>
        <path class="cls-1" d="M62.95,101.79c1.63-3.61,4.78-5.57,7.05-4.36,2.27,1.2,2.78,5.11,1.16,8.72-1.63,3.61-4.78,5.57-7.05,4.36-2.27-1.2-2.78-5.11-1.16-8.72Z"/>
        <path d="M58.18,7.22c-24.87,3.22-43.74,4.34-50.83,27.02C-2.78,9.43,23.65-11.55,58.18,7.22Z"/>
      </g>
    </g>
  </g>
</svg>